<svg xmlns="http://www.w3.org/2000/svg" width="1024" height="1024" viewBox="0 0 1024 1024">
  <defs>
    <linearGradient id="bgB" x1="128" y1="112" x2="896" y2="912" gradientUnits="userSpaceOnUse">
      <stop offset="0" stop-color="#1b1d22"/>
      <stop offset="1" stop-color="#303640"/>
    </linearGradient>
    <linearGradient id="orbitB" x1="284" y1="334" x2="786" y2="786" gradientUnits="userSpaceOnUse">
      <stop offset="0" stop-color="#c4d8ff"/>
      <stop offset="1" stop-color="#4c8fff"/>
    </linearGradient>
  </defs>

  <rect x="84" y="96" width="856" height="856" rx="216" fill="#000000" opacity="0.16"/>
  <rect x="64" y="64" width="896" height="896" rx="224" fill="url(#bgB)"/>
  <rect x="64" y="64" width="896" height="896" rx="224" fill="none" stroke="#4b5563" stroke-width="4" opacity="0.45"/>

  <rect
    x="370"
    y="350"
    width="284"
    height="320"
    rx="76"
    fill="none"
    stroke="#f5f7fb"
    stroke-width="40"
  />
  <path
    d="M432 460H590"
    fill="none"
    stroke="#f5f7fb"
    stroke-width="34"
    stroke-linecap="round"
  />
  <path
    d="M432 544H548"
    fill="none"
    stroke="#f5f7fb"
    stroke-width="34"
    stroke-linecap="round"
  />
  <path
    d="M312 618C346 748 468 812 612 788"
    fill="none"
    stroke="url(#orbitB)"
    stroke-width="34"
    stroke-linecap="round"
  />
  <path
    d="M672 780C756 734 812 652 818 544C824 452 788 370 714 314"
    fill="none"
    stroke="url(#orbitB)"
    stroke-width="34"
    stroke-linecap="round"
  />
  <circle cx="710" cy="312" r="28" fill="#0a84ff"/>
</svg>
