<svg xmlns="http://www.w3.org/2000/svg" width="1024" height="1024" viewBox="0 0 1024 1024">
  <defs>
    <linearGradient id="bgA" x1="160" y1="96" x2="864" y2="928" gradientUnits="userSpaceOnUse">
      <stop offset="0" stop-color="#f8f8f5"/>
      <stop offset="1" stop-color="#e4e9e3"/>
    </linearGradient>
    <linearGradient id="glossA" x1="240" y1="120" x2="712" y2="560" gradientUnits="userSpaceOnUse">
      <stop offset="0" stop-color="#ffffff" stop-opacity="0.92"/>
      <stop offset="1" stop-color="#ffffff" stop-opacity="0"/>
    </linearGradient>
  </defs>

  <rect x="84" y="96" width="856" height="856" rx="216" fill="#000000" opacity="0.08"/>
  <rect x="64" y="64" width="896" height="896" rx="224" fill="url(#bgA)"/>
  <rect x="64" y="64" width="896" height="896" rx="224" fill="none" stroke="#d9ddd8" stroke-width="4"/>
  <path d="M156 132C236 100 378 92 510 126C644 160 766 140 854 102C790 188 672 260 474 242C322 228 224 224 156 132Z" fill="url(#glossA)"/>

  <path
    d="M352 416L512 310L672 416"
    fill="none"
    stroke="#181a1f"
    stroke-width="42"
    stroke-linecap="round"
    stroke-linejoin="round"
  />
  <rect
    x="394"
    y="430"
    width="236"
    height="294"
    rx="58"
    fill="none"
    stroke="#181a1f"
    stroke-width="42"
  />
  <path
    d="M448 520H576"
    fill="none"
    stroke="#181a1f"
    stroke-width="38"
    stroke-linecap="round"
  />
  <path
    d="M448 602H548"
    fill="none"
    stroke="#181a1f"
    stroke-width="38"
    stroke-linecap="round"
  />
  <circle cx="666" cy="618" r="38" fill="#0a84ff"/>
</svg>
